<svg width="62" height="83" viewBox="0 0 62 83" fill="none" xmlns="http://www.w3.org/2000/svg">
<path d="M97.1409 34.3883C97.1409 42.3184 95.1851 50.1261 91.4469 57.1198C87.7087 64.1136 82.3033 70.0774 75.7097 74.4832C69.1161 78.8889 61.5376 81.6005 53.6457 82.3778C45.7538 83.1551 37.792 81.974 30.4655 78.9393C23.1391 75.9046 16.6741 71.1099 11.6433 64.9798C6.61252 58.8498 3.17116 51.5736 1.62408 43.7959C0.0769898 36.0182 0.471932 27.9789 2.77392 20.3903C5.0759 12.8017 9.21388 5.89786 14.8213 0.290429L22.3569 7.826C17.9887 12.1942 14.7652 17.5723 12.9719 23.4838C11.1787 29.3954 10.871 35.658 12.0762 41.7168C13.2814 47.7757 15.9622 53.4438 19.8812 58.2191C23.8002 62.9945 28.8364 66.7296 34.5438 69.0936C40.2511 71.4577 46.4534 72.3777 52.6012 71.7722C58.749 71.1667 64.6526 69.0543 69.789 65.6223C74.9255 62.1902 79.1363 57.5443 82.0483 52.0962C84.9604 46.6481 86.4839 40.5659 86.4839 34.3883H97.1409Z" fill="url(#paint0_linear_2_325)"/>
<defs>
<linearGradient id="paint0_linear_2_325" x1="48.9192" y1="-13.8334" x2="48.9192" y2="82.61" gradientUnits="userSpaceOnUse">
<stop stop-color="#15B9B9"/>
<stop offset="1" stop-color="#3C1DFF"/>
</linearGradient>
</defs>
</svg>
