<svg width="98" height="83" viewBox="0 0 98 83" fill="none" xmlns="http://www.w3.org/2000/svg">
<path d="M97.0024 34.1619C97.0024 42.092 95.0467 49.8997 91.3085 56.8934C87.5703 63.8871 82.1649 69.851 75.5713 74.2567C68.9776 78.6624 61.3992 81.374 53.5073 82.1513C45.6154 82.9286 37.6536 81.7476 30.3271 78.7129C23.0007 75.6782 16.5357 70.8834 11.5049 64.7534C6.4741 58.6233 3.03273 51.3472 1.48565 43.5694C-0.061438 35.7917 0.333504 27.7525 2.63549 20.1638C4.93748 12.5752 9.07545 5.67142 14.6829 0.0639887L22.2185 7.59956C17.8503 11.9678 14.6268 17.3458 12.8335 23.2574C11.0403 29.1689 10.7326 35.4315 11.9378 41.4904C13.143 47.5492 15.8238 53.2174 19.7428 57.9927C23.6618 62.768 28.698 66.5031 34.4053 68.8672C40.1127 71.2312 46.3149 72.1512 52.4627 71.5457C58.6106 70.9402 64.5142 68.8279 69.6506 65.3958C74.7871 61.9637 78.9978 57.3179 81.9099 51.8698C84.822 46.4216 86.3455 40.3394 86.3455 34.1619H97.0024Z" fill="url(#paint0_linear_2_324)"/>
<defs>
<linearGradient id="paint0_linear_2_324" x1="48.7808" y1="-14.0598" x2="48.7808" y2="82.3835" gradientUnits="userSpaceOnUse">
<stop stop-color="#15B9B9"/>
<stop offset="1" stop-color="#3C1DFF"/>
</linearGradient>
</defs>
</svg>
