<svg width="98" height="97" viewBox="0 0 98 97" fill="none" xmlns="http://www.w3.org/2000/svg">
<path d="M97.0041 48.3883C97.0041 59.7675 92.98 70.7801 85.6434 79.4785C78.3069 88.1768 68.1306 94.0004 56.9144 95.9194C45.6981 97.8383 34.1646 95.7289 24.3537 89.9643C14.5427 84.1997 7.08637 75.1512 3.30345 64.4192C-0.479467 53.6872 -0.345262 41.9631 3.68233 31.3206C7.70993 20.678 15.3714 11.8025 25.3118 6.264C35.2521 0.72546 46.8309 -1.11935 58.0003 1.05584C69.1696 3.23103 79.2099 9.28607 86.3455 18.1501L78.0441 24.8327C72.4855 17.9276 64.6641 13.2107 55.9632 11.5162C47.2622 9.82176 38.2423 11.2589 30.4988 15.5734C22.7552 19.8879 16.7869 26.8019 13.6494 35.0925C10.5119 43.3831 10.4073 52.5161 13.3542 60.8764C16.3011 69.2366 22.1096 76.2854 29.7524 80.7761C37.3951 85.2667 46.3798 86.9099 55.1172 85.4151C63.8547 83.9202 71.782 79.3836 77.4972 72.6076C83.2124 65.8316 86.3472 57.2527 86.3472 48.3883H97.0041Z" fill="url(#paint0_linear_2_326)"/>
<defs>
<linearGradient id="paint0_linear_2_326" x1="48.7825" y1="0.166626" x2="48.7825" y2="96.61" gradientUnits="userSpaceOnUse">
<stop stop-color="#15B9B9"/>
<stop offset="1" stop-color="#3C1DFF"/>
</linearGradient>
</defs>
</svg>
